<?xml version="1.0" standalone="no"?>
<!DOCTYPE svg PUBLIC "-//W3C//DTD SVG 20010904//EN"
 "http://www.w3.org/TR/2001/REC-SVG-20010904/DTD/svg10.dtd">
<svg version="1.0" xmlns="http://www.w3.org/2000/svg"
 width="403.000000pt" height="403.000000pt" viewBox="0 0 403.000000 403.000000"
 preserveAspectRatio="xMidYMid meet">
<metadata>
Created by potrace 1.14, written by Peter Selinger 2001-2017
</metadata>
<g transform="translate(0.000000,403.000000) scale(0.100000,-0.100000)"
fill="#000000" stroke="none">
<path d="M1853 3990 c-21 -24 -35 -26 -26 -4 3 9 -7 4 -23 -11 -22 -20 -29
-37 -30 -66 -1 -21 3 -39 7 -39 11 0 12 -54 2 -64 -12 -12 -11 -80 1 -88 8 -6
6 -11 -4 -18 -12 -8 -13 -12 -2 -19 18 -11 20 -914 3 -935 -8 -10 -8 -16 2
-24 13 -11 13 -59 0 -92 -6 -14 -13 -145 -12 -215 0 -16 0 -66 1 -110 0 -44 5
-85 10 -92 14 -17 13 -546 -1 -551 -6 -2 -9 -7 -6 -12 14 -22 -172 -41 -200
-20 -12 9 -70 7 -102 -4 -13 -4 -23 -4 -23 1 0 5 -11 10 -25 11 -14 1 -25 -2
-25 -8 0 -5 -10 -6 -22 -3 -39 9 -262 10 -280 1 -11 -5 -18 -5 -18 1 0 8 -33
8 -125 0 -5 0 -21 2 -34 5 -14 3 -29 2 -35 -3 -6 -5 -23 -9 -38 -9 -36 1 -58
-18 -53 -44 3 -15 0 -19 -14 -15 -10 2 -23 -3 -30 -14 -7 -12 -7 -19 -1 -19 5
0 10 -7 10 -16 0 -12 7 -15 25 -12 14 3 25 1 25 -3 0 -5 -6 -9 -12 -9 -7 -1 2
-9 21 -19 l34 -18 -39 -8 c-21 -5 -44 -7 -51 -6 -6 1 -14 -3 -18 -9 -4 -6 6
-10 24 -10 35 0 41 -15 11 -25 -22 -7 -26 -20 -10 -30 16 -10 1 -25 -25 -25
-13 0 -26 -4 -29 -9 -3 -4 -17 -6 -31 -3 -20 3 -24 1 -19 -12 3 -9 15 -16 25
-16 10 0 18 -3 18 -7 -4 -22 3 -33 17 -33 13 0 14 -3 6 -13 -9 -11 3 -13 64
-13 42 1 78 -2 80 -6 7 -11 71 -10 92 0 10 5 30 4 47 -2 29 -11 30 -13 30 -71
-1 -33 3 -68 7 -78 12 -24 16 -127 5 -127 -4 0 -5 -5 -1 -11 9 -16 11 -309 1
-309 -5 0 -5 -5 -1 -11 9 -16 11 -309 1 -309 -5 0 -5 -6 0 -12 4 -7 7 -32 6
-55 -1 -28 3 -43 13 -47 8 -3 17 0 19 7 6 18 -4 873 -11 945 -4 42 -2 62 5 62
6 0 11 7 11 16 0 8 5 12 10 9 6 -3 10 -2 10 2 0 5 23 10 50 10 48 2 50 1 51
-25 6 -266 2 -1152 -6 -1152 -7 0 -7 -3 0 -8 6 -4 10 -16 10 -27 0 -11 7 -20
15 -20 13 0 15 25 17 160 2 170 5 214 17 233 4 7 2 12 -3 12 -13 0 -14 50 -2
69 6 9 6 23 -1 35 -16 29 -15 693 1 709 6 6 37 12 67 12 48 1 57 -2 64 -19 4
-12 4 -28 0 -37 -5 -8 -5 -21 -1 -28 5 -7 5 -30 1 -51 -4 -21 -4 -44 1 -51 4
-7 4 -20 -1 -29 -5 -9 -5 -22 -1 -29 5 -7 5 -29 1 -49 -3 -21 -3 -49 1 -64 4
-15 5 -29 2 -32 -3 -3 -5 -32 -4 -63 1 -32 1 -64 1 -70 0 -13 0 -28 0 -58 0
-8 0 -32 0 -52 0 -21 0 -56 0 -78 1 -75 0 -130 -1 -190 -1 -70 -1 -81 3 -155
2 -39 7 -56 18 -58 13 -2 15 37 15 314 0 230 3 318 12 325 11 10 9 48 -4 79
-10 24 -10 34 1 48 15 21 13 76 -4 89 -13 10 -13 12 2 18 10 4 15 11 12 16 -3
5 0 9 5 9 6 0 11 13 11 28 0 33 21 82 35 82 20 -1 40 -26 39 -48 -1 -12 3 -22
7 -22 5 0 9 5 9 11 0 5 4 8 9 4 5 -3 10 22 10 57 0 75 13 90 78 93 26 1 48 3
48 5 0 9 65 6 66 -4 1 -6 2 -77 3 -158 1 -117 -2 -149 -13 -153 -10 -4 -11 -8
-1 -20 7 -8 16 -13 20 -10 5 3 11 1 15 -5 3 -6 0 -13 -8 -16 -18 -6 -21 -89
-4 -122 7 -16 8 -25 1 -30 -13 -9 -15 -95 -3 -103 5 -3 9 -40 10 -82 1 -43 5
-79 9 -82 4 -2 8 -32 9 -66 1 -67 5 -79 25 -79 15 0 27 30 29 77 1 18 10 42
20 53 9 11 17 24 17 28 0 4 11 12 25 19 22 10 25 9 25 -7 0 -18 23 -34 34 -23
3 4 6 17 6 30 0 14 6 23 15 23 8 0 15 -7 15 -15 0 -8 5 -15 10 -15 6 0 10 6
10 13 0 8 3 8 9 -2 5 -8 9 -76 9 -153 0 -146 8 -177 40 -157 14 9 17 29 16
126 0 63 -5 118 -10 121 -5 4 -10 18 -12 31 -2 21 1 23 29 17 17 -3 35 -6 38
-6 4 0 7 -75 6 -166 -1 -159 4 -189 27 -166 9 9 15 163 8 197 -1 6 -1 15 0 20
1 6 2 39 3 74 1 60 2 64 29 73 24 9 26 12 13 24 -16 17 -10 44 11 44 12 0 19
25 15 52 0 4 7 9 17 12 10 3 19 17 20 31 2 25 51 90 53 70 0 -6 0 -39 -1 -75
-1 -66 0 -99 4 -135 1 -11 -1 -37 -5 -57 -3 -21 -4 -40 -1 -43 9 -9 7 -65 -2
-65 -6 0 -5 -5 1 -11 8 -8 8 -20 3 -35 -5 -13 -6 -25 -1 -28 4 -3 6 -22 4 -43
-2 -21 -3 -51 -2 -68 0 -16 1 -37 0 -45 -4 -53 -2 -57 26 -63 4 -1 8 61 9 138
0 78 4 146 8 153 4 7 4 12 -1 12 -4 0 -8 44 -7 98 0 53 -4 107 -9 119 -5 12
-6 30 -2 40 12 27 15 93 4 93 -14 0 -11 28 4 33 9 3 9 7 -1 19 -7 9 -9 19 -4
22 5 3 8 58 8 123 -1 66 3 121 8 125 6 4 6 11 0 20 -12 16 -12 28 1 48 5 8 10
24 11 35 3 58 34 105 34 52 0 -13 5 -28 12 -35 9 -9 9 -12 0 -12 -7 0 -11 -14
-10 -35 1 -19 5 -35 10 -35 4 0 11 -1 16 -2 4 -2 7 28 7 67 0 58 3 70 18 73 9
2 17 -1 17 -7 0 -6 -4 -11 -9 -11 -4 0 -8 -58 -7 -130 1 -120 2 -130 20 -130
12 0 16 5 13 15 -4 8 -2 17 3 20 5 3 5 18 1 33 -8 28 -6 101 4 110 2 3 0 11
-6 18 -6 8 -7 14 0 18 6 4 8 13 5 20 -3 8 0 17 5 21 6 3 9 11 6 16 -4 5 11 9
33 9 l38 0 2 -67 c1 -36 5 -69 10 -72 5 -3 9 -54 8 -113 -1 -80 2 -108 11
-108 7 0 10 -6 7 -14 -3 -8 -1 -23 5 -33 9 -16 11 -15 12 7 1 14 2 32 3 40 0
8 -3 18 -9 22 -12 9 -14 148 -2 148 4 0 5 6 0 13 -4 6 -8 49 -8 95 -1 74 1 82
18 82 10 0 16 -4 13 -9 -4 -5 0 -11 6 -13 17 -6 20 -345 4 -369 -15 -23 -8
-109 9 -109 16 0 25 23 20 52 -3 12 0 25 6 29 7 4 12 76 13 209 l1 203 41 12
c81 24 101 8 99 -80 -1 -37 3 -69 9 -74 14 -12 13 -238 -2 -253 -6 -6 -5 -19
5 -39 l15 -30 21 28 c21 26 22 38 23 235 0 114 3 211 7 215 4 3 20 8 35 9 15
1 35 5 45 9 19 8 19 5 19 -77 -1 -45 0 -47 19 -35 17 10 20 21 17 59 -3 46 7
64 28 50 5 -4 9 -38 9 -77 0 -42 5 -79 13 -92 10 -16 10 -22 1 -25 -8 -3 -9
-9 -4 -18 11 -17 13 -128 3 -157 -4 -13 -4 -23 0 -23 4 0 7 -25 5 -55 -1 -30
2 -55 8 -55 19 0 24 6 24 30 0 14 4 31 8 38 5 6 5 12 0 12 -4 0 -8 20 -8 45 0
25 3 45 8 45 4 0 5 5 1 11 -6 10 -12 49 -17 122 -1 15 -6 27 -10 27 -5 0 -5 5
-1 11 3 6 6 46 5 88 l-1 77 80 -1 c81 -1 116 8 94 23 -6 4 -11 22 -12 41 0 19
-6 37 -13 41 -8 6 -8 9 2 13 20 7 -20 36 -43 32 -15 -3 -18 3 -18 35 0 29 6
43 25 58 14 11 25 25 25 31 0 6 8 11 17 11 9 0 13 3 10 7 -4 3 -2 12 4 19 8
10 7 17 -4 29 -9 8 -20 15 -25 15 -6 0 -12 6 -15 13 -3 9 -7 9 -19 -1 -17 -13
-65 -2 -60 14 1 5 -8 9 -20 9 -13 0 -26 8 -30 17 -5 12 -15 15 -37 12 -24 -4
-31 -1 -31 10 0 9 -6 16 -13 16 -22 0 -28 -12 -14 -28 10 -13 8 -14 -18 -8
-16 4 -35 14 -42 22 -9 12 -16 13 -31 5 -15 -8 -23 -7 -32 4 -9 11 -17 12 -32
4 -15 -8 -17 -13 -8 -19 7 -4 10 -14 8 -21 -3 -10 -56 -13 -241 -13 -130 -1
-237 2 -237 7 0 4 -7 7 -15 7 -23 0 -68 48 -58 63 4 6 6 24 4 39 -1 14 2 29 8
33 7 4 4 16 -9 33 -16 23 -18 39 -14 117 2 50 6 128 9 173 2 46 6 86 9 90 3 3
1 11 -5 18 -7 9 -7 19 0 33 7 12 7 22 1 26 -6 4 -6 15 0 30 5 14 6 25 2 25 -4
0 0 5 8 10 13 8 13 10 -2 10 -12 0 -15 5 -11 16 3 9 0 20 -8 25 -10 6 -10 9
-1 9 15 0 17 76 2 85 -6 4 -10 18 -10 33 0 55 -6 111 -13 118 -4 4 -2 13 5 21
6 8 11 48 11 91 0 42 5 80 10 83 6 4 6 15 1 25 -4 11 -9 105 -9 211 -1 139 -5
196 -15 208 -7 8 -8 15 -3 15 13 0 13 5 14 218 1 100 5 182 9 182 13 0 50 37
43 44 -3 3 -2 6 4 6 6 0 13 9 16 20 3 13 0 20 -9 20 -8 0 -24 10 -35 21 -12
12 -31 22 -43 22 -19 0 -22 5 -21 34 2 34 2 34 -38 29 -29 -3 -45 0 -60 15
-18 17 -22 17 -37 4 -9 -8 -22 -15 -28 -15 -7 0 -17 -9 -24 -20 -15 -23 -28
-26 -28 -6 0 13 -20 26 -41 26 -14 0 -11 -28 4 -33 6 -2 9 -8 4 -12 -4 -5 -21
1 -37 14 -17 12 -34 19 -39 17 -5 -3 -11 1 -15 9 -6 17 10 30 19 16 3 -6 12
-8 21 -4 10 4 12 9 4 18 -5 6 -6 15 -2 20 4 4 -3 6 -15 3 -13 -4 -24 0 -27 8
-3 8 -10 14 -17 14 -6 0 -19 10 -30 23 -16 19 -19 20 -20 5 -1 -10 -2 -24 -3
-30 -1 -15 -46 -18 -45 -3 0 6 7 9 15 7 15 -3 18 7 8 32 -8 21 -21 20 -41 -4z"/>
<path d="M1605 1190 c9 -10 14 -24 10 -31 -5 -7 -3 -10 5 -7 18 6 36 35 27 44
-3 4 -18 8 -33 10 -24 2 -25 2 -9 -16z"/>
<path d="M3087 1108 c-10 -8 -17 -18 -16 -23 2 -6 0 -20 -5 -32 -8 -26 8 -63
29 -63 8 0 15 7 15 15 0 8 -4 15 -10 15 -14 0 -13 47 1 52 6 2 9 14 7 26 -3
20 -5 22 -21 10z"/>
<path d="M1615 1070 c-3 -5 -1 -10 4 -10 6 0 11 5 11 10 0 6 -2 10 -4 10 -3 0
-8 -4 -11 -10z"/>
<path d="M2450 1016 c0 -25 4 -47 9 -50 5 -3 9 -25 9 -48 1 -64 1 -70 10 -64
4 2 7 49 7 103 0 85 -2 98 -17 101 -15 3 -18 -4 -18 -42z"/>
<path d="M1540 1034 c0 -8 3 -14 8 -14 9 0 39 19 32 21 -3 0 -13 2 -22 4 -10
2 -18 -3 -18 -11z"/>
<path d="M1546 984 c-10 -27 -7 -54 8 -54 8 0 17 7 20 16 3 8 2 12 -4 9 -6 -3
-10 1 -10 9 0 9 5 16 10 16 6 0 10 5 10 10 0 16 -27 11 -34 -6z"/>
<path d="M1598 983 c7 -3 16 -2 19 1 4 3 -2 6 -13 5 -11 0 -14 -3 -6 -6z"/>
<path d="M1596 955 c-3 -8 -1 -15 4 -15 6 0 10 7 10 15 0 8 -2 15 -4 15 -2 0
-6 -7 -10 -15z"/>
<path d="M3059 938 c-1 -2 -2 -38 -3 -81 -2 -50 1 -76 8 -74 12 4 15 157 4
157 -5 0 -8 -1 -9 -2z"/>
<path d="M2501 883 c-2 -71 -6 -93 -17 -93 -17 0 -23 -46 -10 -72 8 -16 12
-106 11 -291 0 -170 3 -266 10 -264 5 2 10 79 10 193 1 104 5 197 10 207 13
31 12 357 -2 357 -7 0 -12 -16 -12 -37z"/>
<path d="M1541 828 c-1 -45 -5 -85 -9 -88 -10 -7 -9 -326 0 -336 4 -4 3 -13
-3 -20 -7 -8 -7 -14 1 -19 5 -3 10 -23 10 -43 1 -35 2 -36 15 -18 11 14 12 22
4 27 -8 5 -8 8 0 13 7 4 8 14 3 24 -14 28 -8 46 18 60 20 11 21 13 4 9 -15 -3
-23 3 -31 24 -8 19 -7 31 0 38 8 8 8 11 -1 11 -10 0 -10 5 -1 21 9 18 16 213
9 254 -5 26 3 71 14 77 8 5 8 12 0 25 -23 37 -31 23 -33 -59z"/>
<path d="M1599 899 c-7 -27 -3 -79 6 -79 12 0 14 64 2 76 -4 4 -7 5 -8 3z"/>
<path d="M2665 773 c2 -10 4 -20 4 -23 1 -3 5 2 10 10 10 15 6 30 -9 30 -4 0
-7 -8 -5 -17z"/>
<path d="M3054 721 c1 -34 14 -70 17 -45 5 53 3 84 -7 84 -6 0 -10 -16 -10
-39z"/>
<path d="M2646 741 c-4 -5 -2 -12 3 -15 5 -4 12 -2 15 3 4 5 2 12 -3 15 -5 4
-12 2 -15 -3z"/>
<path d="M1577 612 c-3 -4 -1 -16 4 -27 4 -11 8 -15 8 -8 1 6 8 13 16 15 13 2
12 5 -4 15 -11 7 -22 9 -24 5z"/>
</g>
</svg>
